<svg width="25" height="20" viewBox="0 0 25 20" fill="none" xmlns="http://www.w3.org/2000/svg">
<path d="M0 5.71429H24.2105V15C24.2105 17.7614 21.9719 20 19.2105 20H5C2.23858 20 0 17.7614 0 15V5.71429Z" fill="white"/>
<path d="M18.3684 6.61905L5.8421 6.61905L5.8421 5C5.8421 2.79086 7.63296 1 9.8421 1L14.3684 1C16.5776 1 18.3684 2.79086 18.3684 5L18.3684 6.61905Z" stroke="white" stroke-width="2"/>
<path d="M13.4929 11.7827C13.4588 11.4389 13.3125 11.1719 13.054 10.9815C12.7955 10.7912 12.4446 10.696 12.0014 10.696C11.7003 10.696 11.446 10.7386 11.2386 10.8239C11.0313 10.9062 10.8722 11.0213 10.7614 11.169C10.6534 11.3168 10.5994 11.4844 10.5994 11.6719C10.5938 11.8281 10.6264 11.9645 10.6974 12.081C10.7713 12.1974 10.8722 12.2983 11 12.3835C11.1278 12.4659 11.2756 12.5384 11.4432 12.6009C11.6108 12.6605 11.7898 12.7116 11.9801 12.7543L12.7642 12.9418C13.1449 13.027 13.4943 13.1406 13.8125 13.2827C14.1307 13.4247 14.4063 13.5994 14.6392 13.8068C14.8722 14.0142 15.0526 14.2585 15.1804 14.5398C15.3111 14.821 15.3778 15.1435 15.3807 15.5071C15.3778 16.0412 15.2415 16.5043 14.9716 16.8963C14.7045 17.2855 14.3182 17.5881 13.8125 17.804C13.3097 18.017 12.7031 18.1236 11.9929 18.1236C11.2884 18.1236 10.6747 18.0156 10.152 17.7997C9.6321 17.5838 9.22585 17.2642 8.93324 16.8409C8.64347 16.4148 8.49148 15.8878 8.47727 15.2599H10.2628C10.2827 15.5526 10.3665 15.7969 10.5142 15.9929C10.6648 16.1861 10.8651 16.3324 11.1151 16.4318C11.3679 16.5284 11.6534 16.5767 11.9716 16.5767C12.2841 16.5767 12.5554 16.5312 12.7855 16.4403C13.0185 16.3494 13.1989 16.223 13.3267 16.0611C13.4545 15.8991 13.5185 15.7131 13.5185 15.5028C13.5185 15.3068 13.4602 15.142 13.3438 15.0085C13.2301 14.875 13.0625 14.7614 12.8409 14.6676C12.6222 14.5739 12.3537 14.4886 12.0355 14.4119L11.0852 14.1733C10.3494 13.9943 9.76847 13.7145 9.34233 13.3338C8.91619 12.9531 8.70455 12.4403 8.70739 11.7955C8.70455 11.267 8.84517 10.8054 9.12926 10.4105C9.41619 10.0156 9.80966 9.70739 10.3097 9.4858C10.8097 9.2642 11.3778 9.15341 12.0142 9.15341C12.6619 9.15341 13.2273 9.2642 13.7102 9.4858C14.196 9.70739 14.5739 10.0156 14.8438 10.4105C15.1136 10.8054 15.2528 11.2628 15.2614 11.7827H13.4929Z" fill="#DB4F00"/>
</svg>
