 <svg
              width="20"
              height="21"
              viewBox="0 0 20 21"
              fill="none"
              xmlns="http://www.w3.org/2000/svg"
            >
              <path
                d="M0 20.0955L1.41254 14.9351C0.540903 13.4246 0.0828937 11.7123 0.0837311 9.95646C0.086243 4.46705 4.55329 0 10.0419 0C12.7053 0.000837311 15.2056 1.03827 17.0862 2.92054C18.9659 4.80281 20.0008 7.3047 20 9.96567C19.9975 15.4559 15.5304 19.923 10.0419 19.923C8.37562 19.9221 6.73365 19.5043 5.27924 18.7105L0 20.0955ZM5.52374 16.9078C6.92707 17.7409 8.26677 18.24 10.0385 18.2408C14.6002 18.2408 18.3162 14.5282 18.3187 9.96399C18.3204 5.3906 14.622 1.68299 10.0452 1.68132C5.4802 1.68132 1.76673 5.39395 1.76505 9.9573C1.76421 11.8203 2.31014 13.2153 3.22699 14.6747L2.39052 17.7292L5.52374 16.9078ZM15.0582 12.3327C14.9962 12.2289 14.8304 12.167 14.5809 12.0422C14.3322 11.9174 13.1089 11.3154 12.8803 11.2325C12.6526 11.1496 12.4868 11.1078 12.3202 11.3573C12.1544 11.606 11.6771 12.167 11.5323 12.3327C11.3874 12.4985 11.2417 12.5195 10.993 12.3947C10.7444 12.2699 9.94222 12.0079 8.99188 11.1597C8.25253 10.4999 7.75266 9.68517 7.6078 9.43565C7.46295 9.18697 7.59273 9.05216 7.71665 8.92824C7.82885 8.81688 7.96533 8.6377 8.09009 8.492C8.21653 8.34799 8.25756 8.24416 8.34129 8.07753C8.42418 7.91175 8.38315 7.76606 8.32035 7.6413C8.25756 7.51737 7.76019 6.29239 7.55338 5.79419C7.35075 5.30939 7.14561 5.3747 6.99322 5.36716L6.51595 5.35879C6.35016 5.35879 6.08055 5.42075 5.8528 5.67027C5.62505 5.91979 4.982 6.52097 4.982 7.74596C4.982 8.97095 5.87373 10.1541 5.99765 10.3199C6.12241 10.4856 7.75182 12.9992 10.2478 14.0769C10.8415 14.3331 11.3054 14.4863 11.6662 14.601C12.2624 14.7903 12.805 14.7635 13.2337 14.6998C13.7118 14.6287 14.7057 14.0978 14.9133 13.5167C15.121 12.9348 15.121 12.4366 15.0582 12.3327Z"
                fill="#F5FFF9"
              />
            </svg>